<?xml version="1.0" encoding="UTF-8"?>
<svg xmlns="http://www.w3.org/2000/svg" 
     width="1280" 
     height="720"
     viewBox="0 0 1280 720">
  <rect width="100%" height="100%" fill="white"/>
  <g id="semantic-layout">
      <g>
        <rect 
          x="20" 
          y="20" 
          width="840" 
          height="205.21875"
          fill="#9e9e9e" 
          fill-opacity="0.3"
          stroke="#9e9e9e"
          stroke-width="2"
          stroke-opacity="0.8"
          rx="4"
        />
        <text 
          x="25" 
          y="40"
          font-family="Arial, sans-serif"
          font-size="12"
          fill="#9e9e9e"
          fill-opacity="1"
          font-weight="bold"
        >DIV</text></g>
      <g>
        <rect 
          x="40" 
          y="61.4375" 
          width="800" 
          height="51.1875"
          fill="#1976d2" 
          fill-opacity="0.2"
          stroke="#1976d2"
          stroke-width="2"
          stroke-opacity="0.8"
          rx="4"
        />
        <text 
          x="45" 
          y="81.4375"
          font-family="Arial, sans-serif"
          font-size="12"
          fill="#1976d2"
          fill-opacity="1"
          font-weight="bold"
        >H1</text>
        <text 
          x="45" 
          y="96.4375"
          font-family="Arial, sans-serif"
          font-size="10"
          fill="#666"
          fill-opacity="0.8"
        >CSSリファクタリングテスト</text></g>
      <g>
        <rect 
          x="40" 
          y="128.625" 
          width="800" 
          height="25.59375"
          fill="#424242" 
          fill-opacity="0.2"
          stroke="#424242"
          stroke-width="2"
          stroke-opacity="0.8"
          rx="4"
        />
        <text 
          x="45" 
          y="148.625"
          font-family="Arial, sans-serif"
          font-size="12"
          fill="#424242"
          fill-opacity="1"
          font-weight="bold"
        >P</text>
        <text 
          x="45" 
          y="163.625"
          font-family="Arial, sans-serif"
          font-size="10"
          fill="#666"
          fill-opacity="0.8"
        >このページは、CSSのリファクタリング前後で視覚的な変化がないことを確認するためのテストページです。</text></g>
      <g>
        <rect 
          x="40" 
          y="170.21875" 
          width="107" 
          height="35"
          fill="#00796b" 
          fill-opacity="0.2"
          stroke="#00796b"
          stroke-width="2"
          stroke-opacity="0.8"
          rx="4"
        />
        <text 
          x="45" 
          y="190.21875"
          font-family="Arial, sans-serif"
          font-size="12"
          fill="#00796b"
          fill-opacity="1"
          font-weight="bold"
        >BUTTON</text>
        <text 
          x="45" 
          y="205.21875"
          font-family="Arial, sans-serif"
          font-size="10"
          fill="#666"
          fill-opacity="0.8"
        >テストボタン</text></g>
  </g>
  
  <!-- Legend -->
  <g id="legend" transform="translate(1130, 20)">
    <rect x="0" y="0" width="130" height="400" 
          fill="white" stroke="#ccc" stroke-width="1" opacity="0.9"/>
    <text x="10" y="15" font-family="Arial" font-size="12" font-weight="bold">Elements</text>
    <rect x="10" y="25" width="15" height="15" fill="#e3f2fd" opacity="0.5"/>
    <text x="30" y="35" font-family="Arial" font-size="10">header</text>
    <rect x="10" y="45" width="15" height="15" fill="#f3e5f5" opacity="0.5"/>
    <text x="30" y="55" font-family="Arial" font-size="10">nav</text>
    <rect x="10" y="65" width="15" height="15" fill="#e8f5e9" opacity="0.5"/>
    <text x="30" y="75" font-family="Arial" font-size="10">main</text>
    <rect x="10" y="85" width="15" height="15" fill="#fff3e0" opacity="0.5"/>
    <text x="30" y="95" font-family="Arial" font-size="10">article</text>
    <rect x="10" y="105" width="15" height="15" fill="#fce4ec" opacity="0.5"/>
    <text x="30" y="115" font-family="Arial" font-size="10">section</text>
    <rect x="10" y="125" width="15" height="15" fill="#f1f8e9" opacity="0.5"/>
    <text x="30" y="135" font-family="Arial" font-size="10">aside</text>
    <rect x="10" y="145" width="15" height="15" fill="#efebe9" opacity="0.5"/>
    <text x="30" y="155" font-family="Arial" font-size="10">footer</text>
    <rect x="10" y="165" width="15" height="15" fill="#1976d2" opacity="0.5"/>
    <text x="30" y="175" font-family="Arial" font-size="10">h1</text>
    <rect x="10" y="185" width="15" height="15" fill="#388e3c" opacity="0.5"/>
    <text x="30" y="195" font-family="Arial" font-size="10">h2</text>
    <rect x="10" y="205" width="15" height="15" fill="#f57c00" opacity="0.5"/>
    <text x="30" y="215" font-family="Arial" font-size="10">h3</text>
    <rect x="10" y="225" width="15" height="15" fill="#d32f2f" opacity="0.5"/>
    <text x="30" y="235" font-family="Arial" font-size="10">h4</text>
    <rect x="10" y="245" width="15" height="15" fill="#7b1fa2" opacity="0.5"/>
    <text x="30" y="255" font-family="Arial" font-size="10">h5</text>
    <rect x="10" y="265" width="15" height="15" fill="#0288d1" opacity="0.5"/>
    <text x="30" y="275" font-family="Arial" font-size="10">h6</text>
    <rect x="10" y="285" width="15" height="15" fill="#424242" opacity="0.5"/>
    <text x="30" y="295" font-family="Arial" font-size="10">p</text>
    <rect x="10" y="305" width="15" height="15" fill="#1565c0" opacity="0.5"/>
    <text x="30" y="315" font-family="Arial" font-size="10">a</text>
    <rect x="10" y="325" width="15" height="15" fill="#00796b" opacity="0.5"/>
    <text x="30" y="335" font-family="Arial" font-size="10">button</text>
    <rect x="10" y="345" width="15" height="15" fill="#5d4037" opacity="0.5"/>
    <text x="30" y="355" font-family="Arial" font-size="10">form</text>
    <rect x="10" y="365" width="15" height="15" fill="#4527a0" opacity="0.5"/>
    <text x="30" y="375" font-family="Arial" font-size="10">input</text>
  </g>
</svg>